<svg id="visual" viewBox="0 0 1920 1080" width="1920" height="1080" xmlns="http://www.w3.org/2000/svg" xmlns:xlink="http://www.w3.org/1999/xlink" version="1.1"><rect x="0" y="0" width="1920" height="1080" fill="#fafafa"></rect><defs><linearGradient id="grad1_0" x1="43.8%" y1="0%" x2="100%" y2="100%"><stop offset="14.444444444444446%" stop-color="#fafafa" stop-opacity="1"></stop><stop offset="85.55555555555554%" stop-color="#fafafa" stop-opacity="1"></stop></linearGradient></defs><defs><linearGradient id="grad2_0" x1="0%" y1="0%" x2="56.3%" y2="100%"><stop offset="14.444444444444446%" stop-color="#fafafa" stop-opacity="1"></stop><stop offset="85.55555555555554%" stop-color="#fafafa" stop-opacity="1"></stop></linearGradient></defs><g transform="translate(1920, 0)"><path d="M0 810C-46.4 772.2 -92.9 734.4 -143.8 722.8C-194.7 711.3 -250 726 -293.1 707.7C-336.2 689.4 -367.1 638 -403.3 603.6C-439.6 569.3 -481.3 552 -533.9 533.9C-586.4 515.7 -649.8 496.7 -673.5 450C-697.2 403.4 -681.2 329.1 -646.7 267.9C-612.3 206.7 -559.4 158.5 -583.6 116.1C-607.7 73.6 -708.9 36.8 -810 0L0 0Z" fill="#fc5e5e"></path></g><g transform="translate(0, 1080)">
</g></svg>